<?xml version="1.0" encoding="UTF-8" standalone="no"?>
<svg
   width="1158.3132"
   height="940.16632"
   version="1.1"
   viewBox="0 0 1158.3132 940.16632"
   id="svg935"
   sodipodi:docname="neorhLogo.svg"
   inkscape:version="1.1.2 (0a00cf5339, 2022-02-04)"
   xmlns:inkscape="http://www.inkscape.org/namespaces/inkscape"
   xmlns:sodipodi="http://sodipodi.sourceforge.net/DTD/sodipodi-0.dtd"
   xmlns="http://www.w3.org/2000/svg"
   xmlns:svg="http://www.w3.org/2000/svg">
  <defs
     id="defs939" />
  <sodipodi:namedview
     id="namedview937"
     pagecolor="#505050"
     bordercolor="#eeeeee"
     borderopacity="1"
     inkscape:pageshadow="0"
     inkscape:pageopacity="0"
     inkscape:pagecheckerboard="0"
     showgrid="false"
     inkscape:zoom="0.72770862"
     inkscape:cx="155.28193"
     inkscape:cy="364.15674"
     inkscape:window-width="5100"
     inkscape:window-height="1391"
     inkscape:window-x="0"
     inkscape:window-y="29"
     inkscape:window-maximized="1"
     inkscape:current-layer="svg935"
     fit-margin-top="0"
     fit-margin-left="0"
     fit-margin-right="0"
     fit-margin-bottom="0" />
  <path
     d="M 81.622641,134.49264 318.52618,20.427535 508.73882,318.69931 828.32369,573.80594 619.54162,765.54829 400.32256,598.78822 V 456.74718 Z"
     fill="#0f0"
     stroke="#000000"
     stroke-width="31.106"
     id="path909"
     style="fill:#66ff00"
     sodipodi:nodetypes="cccccccc" />
  <path
     d="M 0.017376,404.79788 181.03738,220.02473 407.95198,440.2416 406.92089,565.00058 553.52295,572.84056 713.255,717.81344 517.7534,940.16634 H 212.37266 L -1.92e-6,719.99775 Z"
     id="path911"
     style="stroke-width:12.068" />
  <path
     d="M 25.746352,709.63556 V 415.32118 L 181.37528,256.47009 379.737,451.60965 V 591.91222 L 548.07353,603.11881 680.50776,721.73518 506.33032,914.44907 H 223.29951 Z"
     fill="#ffe700"
     id="path913"
     style="stroke-width:12.068" />
  <path
     d="m 112.24978,643.77546 v -48.82607 l 25.1483,-34.88704 50.99229,21.85288 v 56.11473 l -45.74565,19.51734 z"
     id="path915"
     style="stroke-width:25.0863" />
  <path
     d="m 248.52163,526.08128 h 32.21553 l 17.18966,-31.74849 -20.04012,-32.96616 -29.07906,-5.98693 -21.38208,46.46904 z"
     id="path917"
     style="stroke-width:12.068" />
  <path
     d="m 501.68408,213.3045 -74.86633,153.82644 159.82995,73.22812 71.73962,189.62402 0.40308,-0.18274 89.06512,229.95043 L 1000.5862,758.1391 1117.7899,492.74714 1012.6144,219.32292 752.04325,104.24814 Z"
     id="path925" />
  <path
     d="m 975.78705,632.26531 43.44985,-41.00043 -2.5812,-54.3159 -68.59637,-66.20785 -67.1955,33.61108 -53.71625,-38.68135 -97.79594,107.67886 85.06625,67.56921 69.78894,-46.1528 42.94506,2.65492 z"
     id="path927"
     style="fill:#038bdc;stroke-width:1.19046" />
  <path
     d="m 663.06031,347.16753 21.00541,54.23227 51.76891,10.5216 22.3425,-38.61532 -18.46658,-53.99325 -35.49182,-17.43705 z"
     id="path929"
     style="fill:#038bdc" />
  <path
     d="m 891.1488,307.74112 -15.72205,33.60481 -45.2345,-17.33241 -11.2741,-24.37186 30.32136,-22.7508 32.4559,14.33334 z"
     id="path931"
     style="fill:#038bdc" />
  <path
     d="m 459.15189,764.81207 14.0761,-52.31565 -21.7773,-42.6724 -70.53793,-23.0308 -54.64559,9.50008 -28.49685,39.95502 -26.001,130.17057 82.11054,16.83538 29.87883,-68.13611 29.8454,-16.87634 z"
     id="path927-6"
     style="fill:#000000"
     sodipodi:nodetypes="ccccccccccc" />
</svg>
