<?xml version="1.0" encoding="UTF-8"?>
<svg width="1158.3" height="825.88" version="1.1" viewBox="0 0 1158.3 825.88" xmlns="http://www.w3.org/2000/svg">
 <path d="m112.6 194.32 170.48-168.18 198.73 174.78 325.64 272.86-195.73 220.94z" fill="#0f0" stroke="#000" stroke-width="30"/>
 <g transform="matrix(12.068 0 0 12.068 -728.21 -1119.8)">
  <path d="m60.342 116.86 15-15.311 18.803 18.248-0.08544 10.338 12.148 0.64965 13.236 12.013-16.2 18.425h-25.305l-17.598-18.244z"/>
  <path d="m62.474 142.12v-24.388l12.896-13.163 16.437 16.17v11.626l13.949 0.92862 10.974 9.829-14.433 15.969h-23.453z" fill="#ffe700"/>
  <g>
   <path d="m69.642 132.48v-1.6064l1.2146-1.1478 2.4628 0.71897v1.8462l-2.2094 0.64213z"/>
   <path d="m80.934 126.91h2.6695l1.4244-2.6308-1.6606-2.7317-2.4096-0.4961-1.7718 3.8506z"/>
   <path d="m80.916 149.07 3.5413 2.7395h3.8754l2.6727-0.26727 3.8754-3.4745 1.5368-3.4077-0.20045-6.8822-0.93544 5.6127-1.9377 2.8732-4.4768 3.8754h-5.2786z"/>
  </g>
 </g>
 <path d="m481.81 200.91-6.3418 170.96 175.79 2.4179 142.23 144.48 0.2949-0.33 174.37 174.37 190.14-195.05v-290.12l-206.67-207.63h-284.85z"/>
 <g fill="#038bdc">
  <path d="m876.23 414.61 4.0318 54.026 34.673 33.06 74.185-1.6126 12.095-64.509 49.994-9.6761-18.546-131.44-83.055 11.289-5.6444 74.185-22.578 25.803z"/>
  <path d="m683.51 258.17 41.124 41.124 51.607-11.289 4.8382-44.35-38.705-41.931-39.511-1.6127z"/>
  <path d="m876.23 129.96-0.8062 37.092-48.381 2.4189-20.159-17.74 18.546-33.061h35.48z"/>
 </g>
</svg>
